<svg width="194" height="198" viewBox="0 0 194 198" fill="currentColor" xmlns="http://www.w3.org/2000/svg">
<path fill-rule="evenodd" clip-rule="evenodd" d="M89.067 11.374C85.73 17.63 83 23.145 83 23.629C83 25.44 90.027 26.805 93.639 25.696C96.205 24.908 97.995 24.958 100.568 25.888C103.259 26.862 104.83 26.881 107.57 25.977C109.514 25.335 110.963 24.516 110.79 24.155C101.329 4.352 98.858 0 97.074 0C95.624 0 93.604 2.87 89.067 11.374ZM79.245 31.155C78.279 32.121 78 45.92 78 92.7V153H82.508H87.015L86.758 91.75L86.5 30.5L83.495 30.205C81.842 30.043 79.93 30.47 79.245 31.155ZM93.714 30.619C93.321 31.012 93 58.483 93 91.667V152H97.008H101.015L100.758 91.25L100.5 30.5L97.464 30.203C95.794 30.039 94.107 30.227 93.714 30.619ZM107.667 30.667C107.3 31.033 107 58.708 107 92.167V153H111.5H116V92.7C116 47.133 115.707 32.107 114.8 31.2C113.517 29.917 108.772 29.562 107.667 30.667ZM36.25 148.591L0 174.153V181.577V189H36.5H73V156C73 137.85 72.888 123.006 72.75 123.014C72.612 123.022 56.188 134.532 36.25 148.591ZM121 155.45V188H157.5H194V181.082V174.164L158.82 149.332C139.471 135.674 123.046 124.14 122.32 123.7C121.237 123.044 121 128.753 121 155.45ZM78 162.5V167H97H116V162.5V158H97H78V162.5ZM78 184.481V195.962L80.75 196.541C87.589 197.982 87 199.031 87 185.406V173H82.5H78V184.481ZM93 185.5V198H97H101V185.5V173H97H93V185.5ZM107 185.475V197.95L110.25 197.388C112.037 197.08 114.063 196.655 114.75 196.445C115.656 196.168 116 192.886 116 184.531V173H111.5H107V185.475Z" fill="currentColor"/>
</svg>
