<svg width="197" height="163" viewBox="0 0 197 163" fill="currentColor" xmlns="http://www.w3.org/2000/svg">
    <path d="M87.3354 70.4766V74.2206H82.8234V87.3966H78.1194V74.2206H73.6554V70.4766H87.3354ZM103.14 80.5086C103.14 80.8766 103.116 81.2446 103.068 81.6126H94.1638C94.2118 82.3486 94.4118 82.9006 94.7638 83.2686C95.1318 83.6206 95.5958 83.7966 96.1558 83.7966C96.9398 83.7966 97.4998 83.4446 97.8358 82.7406H102.852C102.644 83.6686 102.236 84.5006 101.628 85.2366C101.036 85.9566 100.284 86.5246 99.3718 86.9406C98.4598 87.3566 97.4518 87.5646 96.3478 87.5646C95.0198 87.5646 93.8358 87.2846 92.7958 86.7246C91.7718 86.1646 90.9638 85.3646 90.3718 84.3246C89.7958 83.2846 89.5078 82.0606 89.5078 80.6526C89.5078 79.2446 89.7958 78.0286 90.3718 77.0046C90.9478 75.9646 91.7478 75.1646 92.7718 74.6046C93.8118 74.0446 95.0038 73.7646 96.3478 73.7646C97.6758 73.7646 98.8518 74.0366 99.8758 74.5806C100.9 75.1246 101.7 75.9086 102.276 76.9326C102.852 77.9406 103.14 79.1326 103.14 80.5086ZM98.3398 79.3326C98.3398 78.7566 98.1478 78.3086 97.7638 77.9886C97.3798 77.6526 96.8998 77.4846 96.3238 77.4846C95.7478 77.4846 95.2758 77.6446 94.9078 77.9646C94.5398 78.2686 94.2998 78.7246 94.1878 79.3326H98.3398ZM105.497 80.6526C105.497 79.2606 105.745 78.0446 106.241 77.0046C106.753 75.9646 107.441 75.1646 108.305 74.6046C109.185 74.0446 110.161 73.7646 111.233 73.7646C112.161 73.7646 112.961 73.9486 113.633 74.3166C114.305 74.6846 114.825 75.1806 115.193 75.8046V73.9326H119.897V87.3966H115.193V85.5246C114.825 86.1486 114.297 86.6446 113.609 87.0126C112.937 87.3806 112.145 87.5646 111.233 87.5646C110.161 87.5646 109.185 87.2846 108.305 86.7246C107.441 86.1646 106.753 85.3646 106.241 84.3246C105.745 83.2686 105.497 82.0446 105.497 80.6526ZM115.193 80.6526C115.193 79.7886 114.953 79.1086 114.473 78.6126C114.009 78.1166 113.433 77.8686 112.745 77.8686C112.041 77.8686 111.457 78.1166 110.993 78.6126C110.529 79.0926 110.297 79.7726 110.297 80.6526C110.297 81.5166 110.529 82.2046 110.993 82.7166C111.457 83.2126 112.041 83.4606 112.745 83.4606C113.433 83.4606 114.009 83.2126 114.473 82.7166C114.953 82.2206 115.193 81.5326 115.193 80.6526ZM123.009 80.6526C123.009 79.2606 123.297 78.0446 123.873 77.0046C124.449 75.9646 125.249 75.1646 126.273 74.6046C127.313 74.0446 128.497 73.7646 129.825 73.7646C131.537 73.7646 132.977 74.2366 134.145 75.1806C135.313 76.1086 136.065 77.4126 136.401 79.0926H131.409C131.121 78.2126 130.561 77.7726 129.729 77.7726C129.137 77.7726 128.665 78.0206 128.313 78.5166C127.977 78.9966 127.809 79.7086 127.809 80.6526C127.809 81.5966 127.977 82.3166 128.313 82.8126C128.665 83.3086 129.137 83.5566 129.729 83.5566C130.577 83.5566 131.137 83.1166 131.409 82.2366H136.401C136.065 83.9006 135.313 85.2046 134.145 86.1486C132.977 87.0926 131.537 87.5646 129.825 87.5646C128.497 87.5646 127.313 87.2846 126.273 86.7246C125.249 86.1646 124.449 85.3646 123.873 84.3246C123.297 83.2846 123.009 82.0606 123.009 80.6526ZM148.411 73.8126C149.947 73.8126 151.163 74.3326 152.059 75.3726C152.971 76.3966 153.427 77.7886 153.427 79.5486V87.3966H148.723V80.1726C148.723 79.4046 148.523 78.8046 148.123 78.3726C147.723 77.9246 147.187 77.7006 146.515 77.7006C145.811 77.7006 145.259 77.9246 144.859 78.3726C144.459 78.8046 144.259 79.4046 144.259 80.1726V87.3966H139.555V69.6366H144.259V75.8526C144.675 75.2446 145.235 74.7566 145.939 74.3886C146.659 74.0046 147.483 73.8126 148.411 73.8126ZM164.481 77.8446H162.369V87.3966H157.641V77.8446H156.177V73.9326H157.641V73.8126C157.641 72.0846 158.145 70.7646 159.153 69.8526C160.177 68.9246 161.641 68.4606 163.545 68.4606C163.929 68.4606 164.225 68.4686 164.433 68.4846V72.4926C164.305 72.4766 164.129 72.4686 163.905 72.4686C163.393 72.4686 163.017 72.5886 162.777 72.8286C162.537 73.0526 162.401 73.4206 162.369 73.9326H164.481V77.8446ZM181.858 73.9326L173.314 93.8046H168.202L171.418 86.8206L165.898 73.9326H171.13L173.962 81.5646L176.698 73.9326H181.858Z" fill="currentColor"/>
    <path fill-rule="evenodd" clip-rule="evenodd" d="M54.5799 19.3564C54.5799 18.9599 56.3751 14.4421 58.5695 9.31735C61.553 2.35105 62.8813 0 63.8348 0C65.008 0 66.6329 3.56507 72.8543 19.7873C72.9681 20.083 72.0152 20.7539 70.7369 21.2798C68.9351 22.0204 67.902 22.0048 66.1324 21.2069C64.4405 20.4451 63.2634 20.4041 61.576 21.0496C59.2008 21.9581 54.5799 20.8399 54.5799 19.3564ZM51.292 75.938C51.292 37.6167 51.4754 26.3129 52.1107 25.5215C52.5611 24.9604 53.8184 24.6106 54.9054 24.7433L56.8815 24.985L57.0511 75.1597L57.2201 125.335H54.2564H51.292V75.938ZM61.1558 75.0918C61.1558 47.9081 61.3669 25.4044 61.6253 25.0825C61.8838 24.7613 62.9931 24.6073 64.0913 24.7417L66.0877 24.985L66.0877 51.9925L66.1301 70.9363C64.9223 73.2441 64.2474 75.8204 64.2474 78.538C64.2474 81.2638 64.9264 83.8475 66.141 86.1606L66.4264 124.515H63.7914H61.1558V75.0918ZM70.3621 91.4378V125.335H73.3212H76.2804V94.9828C74.0719 94.1224 72.0706 92.9151 70.3621 91.4378ZM76.2692 62.0976C76.2207 35.4844 76.0068 26.2006 75.4913 25.5584C74.6476 24.5074 71.5273 24.2166 70.8007 25.1218C70.589 25.3847 70.4113 42.8516 70.3707 65.6308C72.0745 64.1594 74.0689 62.9564 76.2692 62.0976ZM0 142.663L23.8376 121.723C36.9486 110.206 47.7489 100.777 47.8396 100.771C47.9304 100.764 48.004 112.924 48.004 127.792V154.825H24.002H0V148.744V142.663ZM79.5683 154.006V127.341C79.5683 105.472 79.7242 100.795 80.4363 101.333C80.9137 101.693 91.7147 111.141 104.438 122.33L127.572 142.672V148.339V154.006H103.57H79.5683ZM51.292 136.803V133.117V129.43H63.7862H76.2804V133.117V136.803H63.7862H51.292ZM51.292 160.528V151.123V141.718H54.2511H57.2103V151.881C57.2103 158.681 57.354 161.019 56.4495 161.541C55.8693 161.876 54.8577 161.464 53.1003 161.002L51.292 160.528ZM61.1558 162.198V151.958V141.718H63.7862H66.4165V151.958V162.198H63.7862H61.1558ZM70.3621 162.157V151.937V141.718H73.3212H76.2804V151.164C76.2804 158.008 76.0542 160.697 75.4584 160.924C75.0066 161.096 73.6743 161.444 72.4992 161.696L70.3621 162.157Z" fill="currentColor"/>
</svg>
